<mxfile host="Electron" agent="Mozilla/5.0 (X11; Linux x86_64) AppleWebKit/537.36 (KHTML, like Gecko) draw.io/26.2.2 Chrome/134.0.6998.178 Electron/35.1.2 Safari/537.36" version="26.2.2">
  <diagram name="Page-1" id="53FzpQh_UvQp0FExEimE">
    <mxGraphModel dx="1247" dy="576" grid="1" gridSize="10" guides="1" tooltips="1" connect="1" arrows="1" fold="1" page="1" pageScale="1" pageWidth="850" pageHeight="1100" math="0" shadow="0">
      <root>
        <mxCell id="0" />
        <mxCell id="1" parent="0" />
        <mxCell id="i8Y-JqhI2kjF331-5Rmw-3" value="" style="edgeStyle=orthogonalEdgeStyle;rounded=0;orthogonalLoop=1;jettySize=auto;html=1;" edge="1" parent="1" source="i8Y-JqhI2kjF331-5Rmw-1" target="i8Y-JqhI2kjF331-5Rmw-2">
          <mxGeometry relative="1" as="geometry" />
        </mxCell>
        <mxCell id="i8Y-JqhI2kjF331-5Rmw-1" value="Main" style="rounded=1;whiteSpace=wrap;html=1;arcSize=50;" vertex="1" parent="1">
          <mxGeometry x="365" y="50" width="120" height="60" as="geometry" />
        </mxCell>
        <mxCell id="i8Y-JqhI2kjF331-5Rmw-5" value="" style="edgeStyle=orthogonalEdgeStyle;rounded=0;orthogonalLoop=1;jettySize=auto;html=1;" edge="1" parent="1" source="i8Y-JqhI2kjF331-5Rmw-2" target="i8Y-JqhI2kjF331-5Rmw-4">
          <mxGeometry relative="1" as="geometry" />
        </mxCell>
        <mxCell id="i8Y-JqhI2kjF331-5Rmw-2" value="Enter an integer:&amp;nbsp;" style="shape=parallelogram;perimeter=parallelogramPerimeter;whiteSpace=wrap;html=1;fixedSize=1;" vertex="1" parent="1">
          <mxGeometry x="308" y="160" width="235" height="60" as="geometry" />
        </mxCell>
        <mxCell id="i8Y-JqhI2kjF331-5Rmw-11" value="" style="edgeStyle=orthogonalEdgeStyle;rounded=0;orthogonalLoop=1;jettySize=auto;html=1;" edge="1" parent="1" source="i8Y-JqhI2kjF331-5Rmw-4" target="i8Y-JqhI2kjF331-5Rmw-10">
          <mxGeometry relative="1" as="geometry" />
        </mxCell>
        <mxCell id="i8Y-JqhI2kjF331-5Rmw-4" value="number" style="shape=parallelogram;perimeter=parallelogramPerimeter;whiteSpace=wrap;html=1;fixedSize=1;" vertex="1" parent="1">
          <mxGeometry x="365" y="290" width="120" height="60" as="geometry" />
        </mxCell>
        <mxCell id="i8Y-JqhI2kjF331-5Rmw-6" value="" style="shape=singleArrow;whiteSpace=wrap;html=1;arrowWidth=0.4;arrowSize=0.4;" vertex="1" parent="1">
          <mxGeometry x="580" y="170" width="60" height="40" as="geometry" />
        </mxCell>
        <mxCell id="i8Y-JqhI2kjF331-5Rmw-7" value="Output" style="text;html=1;align=center;verticalAlign=middle;resizable=0;points=[];autosize=1;strokeColor=none;fillColor=none;" vertex="1" parent="1">
          <mxGeometry x="670" y="175" width="60" height="30" as="geometry" />
        </mxCell>
        <mxCell id="i8Y-JqhI2kjF331-5Rmw-8" value="" style="shape=singleArrow;whiteSpace=wrap;html=1;arrowWidth=0.4;arrowSize=0.4;" vertex="1" parent="1">
          <mxGeometry x="580" y="300" width="60" height="40" as="geometry" />
        </mxCell>
        <mxCell id="i8Y-JqhI2kjF331-5Rmw-9" value="Input" style="text;html=1;align=center;verticalAlign=middle;resizable=0;points=[];autosize=1;strokeColor=none;fillColor=none;" vertex="1" parent="1">
          <mxGeometry x="675" y="305" width="50" height="30" as="geometry" />
        </mxCell>
        <mxCell id="i8Y-JqhI2kjF331-5Rmw-13" style="edgeStyle=orthogonalEdgeStyle;rounded=0;orthogonalLoop=1;jettySize=auto;html=1;" edge="1" parent="1" source="i8Y-JqhI2kjF331-5Rmw-10" target="i8Y-JqhI2kjF331-5Rmw-12">
          <mxGeometry relative="1" as="geometry">
            <Array as="points">
              <mxPoint x="705" y="475" />
            </Array>
          </mxGeometry>
        </mxCell>
        <mxCell id="i8Y-JqhI2kjF331-5Rmw-16" style="edgeStyle=orthogonalEdgeStyle;rounded=0;orthogonalLoop=1;jettySize=auto;html=1;" edge="1" parent="1" source="i8Y-JqhI2kjF331-5Rmw-10" target="i8Y-JqhI2kjF331-5Rmw-15">
          <mxGeometry relative="1" as="geometry">
            <Array as="points">
              <mxPoint x="165" y="475" />
            </Array>
          </mxGeometry>
        </mxCell>
        <mxCell id="i8Y-JqhI2kjF331-5Rmw-10" value="number % 2 == 0&amp;nbsp;&lt;br&gt;and&amp;nbsp;&lt;br&gt;number % 3 == 0&amp;nbsp;" style="rhombus;whiteSpace=wrap;html=1;" vertex="1" parent="1">
          <mxGeometry x="273" y="420" width="305" height="110" as="geometry" />
        </mxCell>
        <mxCell id="i8Y-JqhI2kjF331-5Rmw-20" style="edgeStyle=orthogonalEdgeStyle;rounded=0;orthogonalLoop=1;jettySize=auto;html=1;" edge="1" parent="1" source="i8Y-JqhI2kjF331-5Rmw-12" target="i8Y-JqhI2kjF331-5Rmw-19">
          <mxGeometry relative="1" as="geometry">
            <Array as="points">
              <mxPoint x="695" y="680" />
              <mxPoint x="425" y="680" />
            </Array>
          </mxGeometry>
        </mxCell>
        <mxCell id="i8Y-JqhI2kjF331-5Rmw-12" value="The number `number` is divisible by both 2 and 3" style="shape=parallelogram;perimeter=parallelogramPerimeter;whiteSpace=wrap;html=1;fixedSize=1;" vertex="1" parent="1">
          <mxGeometry x="550" y="570" width="290" height="60" as="geometry" />
        </mxCell>
        <mxCell id="i8Y-JqhI2kjF331-5Rmw-14" value="True" style="text;html=1;align=center;verticalAlign=middle;resizable=0;points=[];autosize=1;strokeColor=none;fillColor=none;" vertex="1" parent="1">
          <mxGeometry x="600" y="440" width="50" height="30" as="geometry" />
        </mxCell>
        <mxCell id="i8Y-JqhI2kjF331-5Rmw-21" style="edgeStyle=orthogonalEdgeStyle;rounded=0;orthogonalLoop=1;jettySize=auto;html=1;entryX=0.5;entryY=0;entryDx=0;entryDy=0;" edge="1" parent="1" source="i8Y-JqhI2kjF331-5Rmw-15" target="i8Y-JqhI2kjF331-5Rmw-19">
          <mxGeometry relative="1" as="geometry">
            <Array as="points">
              <mxPoint x="165" y="680" />
              <mxPoint x="425" y="680" />
            </Array>
          </mxGeometry>
        </mxCell>
        <mxCell id="i8Y-JqhI2kjF331-5Rmw-15" value="The number `number` is mot divisible by both 2 and 3" style="shape=parallelogram;perimeter=parallelogramPerimeter;whiteSpace=wrap;html=1;fixedSize=1;" vertex="1" parent="1">
          <mxGeometry x="20" y="570" width="290" height="60" as="geometry" />
        </mxCell>
        <mxCell id="i8Y-JqhI2kjF331-5Rmw-17" value="False" style="text;html=1;align=center;verticalAlign=middle;resizable=0;points=[];autosize=1;strokeColor=none;fillColor=none;" vertex="1" parent="1">
          <mxGeometry x="200" y="440" width="50" height="30" as="geometry" />
        </mxCell>
        <mxCell id="i8Y-JqhI2kjF331-5Rmw-19" value="END" style="rounded=1;whiteSpace=wrap;html=1;arcSize=50;" vertex="1" parent="1">
          <mxGeometry x="365" y="720" width="120" height="60" as="geometry" />
        </mxCell>
      </root>
    </mxGraphModel>
  </diagram>
</mxfile>
